<svg width="192" height="192" viewBox="0 0 192 192" fill="none" xmlns="http://www.w3.org/2000/svg">
    <circle cx="87.5" cy="91.5" r="83.5" fill="#3B82F6"/>
    <rect x="60" y="29" width="128" height="156" rx="8" fill="white"/>
    <rect x="70" y="39" width="22" height="8" rx="4" fill="#E5E5E5"/>
    <rect x="162" y="39" width="16" height="8" rx="4" fill="#E5E5E5"/>
    <rect x="98" y="39" width="58" height="8" rx="4" fill="#E5E5E5"/>
    <rect x="70" y="54" width="22" height="8" rx="4" fill="#E5E5E5"/>
    <rect x="156" y="54" width="22" height="8" rx="4" fill="#E5E5E5"/>
    <rect x="98" y="54" width="52" height="8" rx="4" fill="#E5E5E5"/>
    <rect x="70" y="69" width="22" height="8" rx="4" fill="#E5E5E5"/>
    <rect x="162" y="69" width="16" height="8" rx="4" fill="#E5E5E5"/>
    <rect x="98" y="69" width="58" height="8" rx="4" fill="#E5E5E5"/>
    <rect x="70" y="84" width="22" height="8" rx="4" fill="#E5E5E5"/>
    <rect x="156" y="84" width="22" height="8" rx="4" fill="#E5E5E5"/>
    <rect x="98" y="84" width="52" height="8" rx="4" fill="#E5E5E5"/>
    <rect x="70" y="99" width="22" height="8" rx="4" fill="#E5E5E5"/>
    <rect x="162" y="99" width="16" height="8" rx="4" fill="#E5E5E5"/>
    <rect x="98" y="99" width="58" height="8" rx="4" fill="#E5E5E5"/>
    <rect x="70" y="114" width="22" height="8" rx="4" fill="#E5E5E5"/>
    <rect x="156" y="114" width="22" height="8" rx="4" fill="#E5E5E5"/>
    <rect x="98" y="114" width="52" height="8" rx="4" fill="#E5E5E5"/>
    <rect x="70" y="173" width="108" height="2" rx="1" fill="#E5E5E5"/>
    <circle cx="87.5" cy="91.5" r="83.5" fill="#3B82F6"/>
    <rect x="60" y="29" width="128" height="156" rx="8" fill="white"/>
    <rect x="70" y="39" width="22" height="8" rx="4" fill="#E5E5E5"/>
    <rect x="162" y="39" width="16" height="8" rx="4" fill="#E5E5E5"/>
    <rect x="98" y="39" width="58" height="8" rx="4" fill="#E5E5E5"/>
    <rect x="70" y="54" width="22" height="8" rx="4" fill="#E5E5E5"/>
    <rect x="156" y="54" width="22" height="8" rx="4" fill="#E5E5E5"/>
    <rect x="98" y="54" width="52" height="8" rx="4" fill="#E5E5E5"/>
    <rect x="70" y="69" width="22" height="8" rx="4" fill="#E5E5E5"/>
    <rect x="162" y="69" width="16" height="8" rx="4" fill="#E5E5E5"/>
    <rect x="98" y="69" width="58" height="8" rx="4" fill="#E5E5E5"/>
    <rect x="70" y="84" width="22" height="8" rx="4" fill="#E5E5E5"/>
    <rect x="156" y="84" width="22" height="8" rx="4" fill="#E5E5E5"/>
    <rect x="98" y="84" width="52" height="8" rx="4" fill="#E5E5E5"/>
    <rect x="70" y="99" width="22" height="8" rx="4" fill="#E5E5E5"/>
    <rect x="162" y="99" width="16" height="8" rx="4" fill="#E5E5E5"/>
    <rect x="98" y="99" width="58" height="8" rx="4" fill="#E5E5E5"/>
    <rect x="70" y="114" width="22" height="8" rx="4" fill="#E5E5E5"/>
    <rect x="156" y="114" width="22" height="8" rx="4" fill="#E5E5E5"/>
    <rect x="98" y="114" width="52" height="8" rx="4" fill="#E5E5E5"/>
    <rect x="70" y="173" width="108" height="2" rx="1" fill="#E5E5E5"/>
</svg>
