<svg viewBox="0 0 346 492" fill="none" xmlns="http://www.w3.org/2000/svg">
    <path d="M40.5 151C59.5 153 75.9999 180 77.9999 194L83.9999 120C83.9999 120 88.5 49 94 38.5L94.0696 38.3671C99.5592 27.8865 106.567 14.5063 122.5 16C138.5 17.5 152.534 30 152.5 38.5C152.466 47 149.5 265 149.5 265L152.5 44.5C152.5 44.5 157.5 -1.71661e-05 188 4.49998C218.5 8.99998 218.5 32.5 218.5 32.5L215 256.5L218.5 44.5C218.5 44.5 239 16 258 24.5C277 33 277.5 52.5 280 82.5C280.81 92.2222 280.623 114.81 279.999 140.903C280.892 129.608 285.289 112.831 303.5 112.5C331 112 336 152 336 152C336 152 339.5 219.5 340 265C340.5 310.5 350 392.5 322 440.5C294 488.5 220 497 112 481C4.00005 465 3.99994 350.5 3.99997 346C4 341.5 5.64787 183.717 12 170L12.2103 169.546C18.4239 156.123 21.7108 149.022 40.5 151Z" fill="#FCD4BE"/>
    <path d="M162.5 403.5C146.5 321 88.5 316.5 83.9999 313C79.4999 309.5 80 208 77.9999 194M77.9999 194C75.9999 180 59.5 153 40.5 151C21.5 149 18.3521 156.283 12 170C5.64787 183.717 4 341.5 3.99997 346C3.99994 350.5 4.00005 465 112 481C220 497 294 488.5 322 440.5C350 392.5 340.5 310.5 340 265C339.5 219.5 336 152 336 152C336 152 331 112 303.5 112.5C276 113 280 151 280 151L275.5 265C275.5 265 282.5 112.5 280 82.5C277.5 52.5 277 33 258 24.5C239 16 218.5 44.5 218.5 44.5L215 256.5L218.5 32.5C218.5 32.5 218.5 8.99998 188 4.49998C157.5 -1.71065e-05 152.5 44.5 152.5 44.5L149.5 265C149.5 265 152.466 47 152.5 38.5C152.534 30 138.5 17.5 122.5 16C106.5 14.5 99.5 28 94 38.5C88.5 49 83.9999 120 83.9999 120L77.9999 194Z" stroke="black" stroke-width="7" stroke-linecap="round" stroke-linejoin="round"/>
</svg>
