<svg width="140" height="194" viewBox="0 0 140 194" fill="none" xmlns="http://www.w3.org/2000/svg">
  <g filter="url(#filter0_d)">
    <path fill-rule="evenodd" clip-rule="evenodd" d="M4.5546 25.5737C-0.984884 36.7923 -1.47136 50.4513 3.09516 66.5506C7.67448 82.6949 15.2376 94.0706 25.7846 100.678C34.5694 106.181 44.7951 107.946 56.4619 105.972L66.9238 141.324C69.2782 149.28 69.6049 155.587 67.9039 160.246C66.1711 164.962 62.2258 168.232 56.068 170.054C51.4833 171.411 47.6931 170.993 44.6976 168.8C41.6705 166.665 39.3122 162.743 37.6229 157.035L24.0151 111.053L8.1709 115.742L22.5568 164.353C25.2837 173.567 29.3574 179.817 34.7778 183.101C40.1534 186.399 49.0526 186.445 57.9523 183.811C58.9394 183.402 59.847 183.045 60.7021 182.71C65.4199 180.858 68.544 179.633 74.6503 173.546C79.1806 168.07 79.7425 164.361 80.2551 160.977C80.4123 159.94 80.5649 158.933 80.8257 157.915C80.8257 157.915 85.7945 163.426 90.5308 165.7C94.0117 167.372 99.5252 168.4 104.591 167.837C111.051 167.118 113.011 166.37 118.982 163.462C123.922 161.056 127.793 157.841 130.232 153.667C133.026 148.887 133.523 145.545 133.369 139.601C133.186 132.542 129.402 121.643 129.402 121.643L117.864 83.224L102.725 87.8946L113.718 125.044C116.459 134.303 118.165 140.227 116.503 145.02C114.811 149.872 110.854 152.519 104.741 154.328C100.156 155.685 94.6629 153.859 91.6674 151.666C88.6852 149.518 85.0224 144.586 83.3331 138.878L72.3539 101.255C82.6439 96.7804 90.0037 90.1705 94.4331 81.4249C99.9787 70.3994 100.436 56.7243 95.8057 40.3996C91.1753 24.0748 83.6091 12.6025 73.1072 5.98271C62.573 -0.579237 49.8425 -1.74323 34.9158 2.49071C20.1694 6.6735 10.049 14.3678 4.5546 25.5737ZM63.3459 19.4952C70.0522 24.4143 75.1321 32.9619 78.5858 45.1378C82.0267 57.2686 82.1784 67.1653 79.0409 74.8279C75.8584 82.5033 69.4193 87.7161 59.7237 90.4662C50.1182 93.1908 42.0139 92.1032 35.4106 87.2036C28.7622 82.3167 23.7176 73.8079 20.2767 61.6771C16.7847 49.3659 16.6138 39.4015 19.764 31.784C22.8692 24.1793 29.2245 19.0146 38.8299 16.2901C48.4805 13.5527 56.6525 14.6211 63.3459 19.4952Z" fill="url(#paint0_linear)"/>
  </g>
  <defs>
    <filter id="filter0_d" x="0" y="0" width="139.394" height="193.689" filterUnits="userSpaceOnUse" color-interpolation-filters="sRGB">
      <feFlood flood-opacity="0" result="BackgroundImageFix"/>
      <feColorMatrix in="SourceAlpha" type="matrix" values="0 0 0 0 0 0 0 0 0 0 0 0 0 0 0 0 0 0 127 0" result="hardAlpha"/>
      <feOffset dx="4" dy="6"/>
      <feGaussianBlur stdDeviation="1"/>
      <feComposite in2="hardAlpha" operator="out"/>
      <feColorMatrix type="matrix" values="0 0 0 0 0.0627451 0 0 0 0 0.0627451 0 0 0 0 0.0627451 0 0 0 0.8 0"/>
      <feBlend mode="hard-light" in2="BackgroundImageFix" result="effect1_dropShadow"/>
      <feBlend mode="normal" in="SourceGraphic" in2="effect1_dropShadow" result="shape"/>
    </filter>
    <linearGradient id="paint0_linear" x1="42.231" y1="0.0184021" x2="95.731" y2="180.018" gradientUnits="userSpaceOnUse">
      <stop offset="0.401042" stop-color="#FFC0A5"/>
      <stop offset="0.953125" stop-color="#7F29C7"/>
    </linearGradient>
  </defs>
</svg>
